<?xml version="1.0" encoding="utf-8"?>
<!-- Generator: Adobe Illustrator 24.1.1, SVG Export Plug-In . SVG Version: 6.00 Build 0)  -->
<svg version="1.1" xmlns="http://www.w3.org/2000/svg" xmlns:xlink="http://www.w3.org/1999/xlink" x="0px" y="0px"
	 viewBox="0 0 500 500" style="enable-background:new 0 0 500 500;" xml:space="preserve">
<style type="text/css">
	.st0{fill:#EBEBEB;}
	.st1{fill:#FAFAFA;}
	.st2{fill:#FFFFFF;}
	.st3{fill:#E0E0E0;}
	.st4{fill:#F0F0F0;}
	.st5{opacity:0.5;fill:#EBEBEB;}
	.st6{fill:#F5F5F5;}
	.st7{display:none;}
	.st8{display:inline;}
	.st9{fill:#407BFF;}
	.st10{opacity:0.9;fill:#FFFFFF;}
	.st11{fill:#B55B52;}
	.st12{fill:#263238;}
	.st13{fill:#B65B52;}
	.st14{opacity:0.2;}
	.st15{fill:#A02724;}
	.st16{opacity:0.2;fill:#407BFF;}
	.st17{opacity:0.5;fill:#FFFFFF;}
	.st18{opacity:0.4;fill:#407BFF;}
	.st19{opacity:0.8;fill:#FFFFFF;}
	.st20{opacity:0.5;fill:#407BFF;}
	.st21{opacity:0.8;}
	.st22{opacity:0.3;fill:#407BFF;}
	.st23{opacity:0.8;fill-rule:evenodd;clip-rule:evenodd;fill:#FFFFFF;}
</style>
<g id="Background_Complete">
	<g>
		<rect y="382.4" class="st0" width="500" height="0.25"/>
		<rect x="52.46" y="391.92" class="st0" width="33.12" height="0.25"/>
		<rect x="171.14" y="389.21" class="st0" width="55.42" height="0.25"/>
		<rect x="91" y="397.86" class="st0" width="19.19" height="0.25"/>
		<rect x="385.46" y="391.8" class="st0" width="43.19" height="0.25"/>
		<rect x="437.56" y="391.8" class="st0" width="6.33" height="0.25"/>
		<rect x="277.21" y="395.31" class="st0" width="46.84" height="0.25"/>
		<path class="st0" d="M237.01,337.8H43.92c-3.15,0-5.71-2.56-5.71-5.71V60.66c0-3.15,2.56-5.71,5.71-5.71h193.1
			c3.15,0,5.71,2.56,5.71,5.71v271.43C242.72,335.24,240.16,337.8,237.01,337.8z M43.92,55.2c-3.01,0-5.46,2.45-5.46,5.46v271.43
			c0,3.01,2.45,5.46,5.46,5.46h193.1c3.01,0,5.46-2.45,5.46-5.46V60.66c0-3.01-2.45-5.46-5.46-5.46H43.92z"/>
		<path class="st0" d="M453.31,337.8h-193.1c-3.15,0-5.71-2.56-5.71-5.71V60.66c0-3.15,2.56-5.71,5.71-5.71h193.1
			c3.15,0,5.71,2.56,5.71,5.71v271.43C459.02,335.24,456.46,337.8,453.31,337.8z M260.21,55.2c-3.01,0-5.46,2.45-5.46,5.46v271.43
			c0,3.01,2.45,5.46,5.46,5.46h193.1c3.01,0,5.46-2.45,5.46-5.46V60.66c0-3.01-2.45-5.46-5.46-5.46H260.21z"/>
	</g>
	<g>
		<g>
			<g>
				<rect x="104.78" y="74.39" class="st1" width="193.06" height="138.59"/>
				<polygon class="st2" points="286.85,212.99 237.75,74.39 200.9,74.39 250,212.99 				"/>
				<polygon class="st2" points="187.76,212.99 138.66,74.39 125.22,74.39 174.32,212.99 				"/>
				<g>
					<path class="st3" d="M95.58,69.63h211.47c0.47,0,0.86,0.39,0.86,0.86l0,0c0,0.47-0.39,0.86-0.86,0.86H95.58
						c-0.47,0-0.86-0.39-0.86-0.86l0,0C94.72,70.01,95.11,69.63,95.58,69.63z"/>
					<rect x="200.17" y="74.1" class="st4" width="2.29" height="139.19"/>
					<rect x="199.02" y="74.1" class="st3" width="1.14" height="139.19"/>
					
						<rect x="200.17" y="45.83" transform="matrix(6.123234e-17 -1 1 6.123234e-17 57.6222 345.0016)" class="st4" width="2.29" height="195.73"/>
					<path class="st4" d="M103.45,212.03L103.45,212.03V75.35v-2.29h2.29h191.15h2.29v2.29v136.69h0v2.29h0l0,0h-2.29l0,0H105.74
						l0,0h-2.29l0,0l0,0V212.03z M296.89,212.03V75.35H105.74v136.69H296.89z"/>
					<rect x="102.3" y="73.06" class="st3" width="1.14" height="141.26"/>
				</g>
			</g>
			<g>
				<polygon class="st5" points="131.83,67.53 131.83,230.29 90.51,230.29 98.09,67.53 				"/>
				<polygon class="st5" points="269.65,67.53 269.65,230.29 310.97,230.29 303.39,67.53 				"/>
			</g>
		</g>
		<g>
			<g>
				<g>
					<rect x="61.92" y="249.79" class="st4" width="15.76" height="127.83"/>
					<rect x="64.95" y="377.62" class="st4" width="173.63" height="4.78"/>
					
						<rect x="77.68" y="249.79" transform="matrix(-1 -1.224647e-16 1.224647e-16 -1 319.2858 627.4077)" class="st6" width="163.92" height="127.83"/>
					<rect x="59.94" y="245.62" class="st4" width="16.11" height="4.17"/>
					
						<rect x="76.05" y="245.62" transform="matrix(-1 -1.224647e-16 1.224647e-16 -1 319.6335 495.407)" class="st1" width="167.54" height="4.17"/>
					<path class="st3" d="M235.94,321.73H83.35v-63.18h152.59V321.73z M84.41,320.67h150.47V259.6H84.41V320.67z"/>
					<path class="st3" d="M235.94,368.86H83.35v-40.81h152.59V368.86z M84.41,367.8h150.47v-38.69H84.41V367.8z"/>
					<path class="st3" d="M213.98,262.47H105.31c-0.77,0-1.4-0.63-1.4-1.4v-0.6c0-0.77,0.63-1.4,1.4-1.4h108.68
						c0.77,0,1.4,0.63,1.4,1.4v0.6C215.38,261.84,214.75,262.47,213.98,262.47z"/>
					<path class="st3" d="M213.98,331.97H105.31c-0.77,0-1.4-0.63-1.4-1.4v-0.6c0-0.77,0.63-1.4,1.4-1.4h108.68
						c0.77,0,1.4,0.63,1.4,1.4v0.6C215.38,331.34,214.75,331.97,213.98,331.97z"/>
				</g>
			</g>
		</g>
		<g>
			
				<rect x="347.86" y="96.55" transform="matrix(-1 -1.224647e-16 1.224647e-16 -1 787.3951 472.8128)" class="st4" width="91.68" height="279.72"/>
			<rect x="344.95" y="96.55" class="st3" width="2.91" height="279.72"/>
			
				<rect x="362.73" y="107.22" transform="matrix(-1 -1.224647e-16 1.224647e-16 -1 787.3951 472.8128)" class="st1" width="61.93" height="258.38"/>
		</g>
	</g>
</g>
<g id="Background_Simple" class="st7">
	<g class="st8">
		<path class="st9" d="M146.45,288.77c41.91,14.27,94.5-1.81,136.88-21.9c168.56-63.78,74.61-197.08-39.04-186.88
			C130.65,90.18,19.54,245.28,146.45,288.77z"/>
		<path class="st10" d="M146.45,288.77c41.91,14.27,94.5-1.81,136.88-21.9c168.56-63.78,74.61-197.08-39.04-186.88
			C130.65,90.18,19.54,245.28,146.45,288.77z"/>
	</g>
</g>
<g id="Shadow_1_">
	<ellipse id="_x3C_Path_x3E__291_" class="st6" cx="250" cy="416.24" rx="193.89" ry="11.32"/>
</g>
<g id="Character_1_">
	<g>
		<polygon class="st11" points="143.36,407.53 151.19,404.56 146.39,385.64 138.56,388.61 		"/>
		<polygon class="st11" points="84.53,407.68 92.9,407.68 94.16,388.29 85.78,388.29 		"/>
		<path class="st12" d="M93.74,406.72H83.53c-0.34,0-0.63,0.24-0.68,0.57l-1.28,7.44c-0.13,0.77,0.51,1.5,1.3,1.49
			c3.28-0.06,5.67-0.25,9.81-0.25c2.55,0,10.23,0.26,13.75,0.26c3.44,0,3.8-3.48,2.35-3.79c-6.52-1.41-11.48-3.36-13.64-5.21
			C94.73,406.9,94.24,406.72,93.74,406.72z"/>
		<path class="st12" d="M150.79,403.68l-8.55,3.24c-0.32,0.12-0.51,0.45-0.46,0.79l1.09,7.55c0.11,0.78,0.92,1.26,1.65,0.97
			c3.06-1.22,5.67-2.77,9.57-4.17c4.56-1.64,9.09-3.39,12.78-5.74c2.9-1.85,1.68-5.34,0.31-4.79c-6.22,2.5-7.75,3.32-14.28,2.06
			C152.19,403.44,151.46,403.42,150.79,403.68z"/>
		<path class="st13" d="M128.7,152.49c2.64,4.66,5.41,9.46,8.21,14.1c2.8,4.66,5.67,9.27,8.72,13.6c0.74,1.1,1.56,2.14,2.29,3.16
			c0.31,0.45,0.44,0.58,0.65,0.75c0.22,0.16,0.73,0.31,1.52,0.24c0.78-0.05,1.77-0.28,2.8-0.66c2.07-0.76,4.29-2,6.46-3.38
			c1.08-0.71,2.17-1.44,3.25-2.22c1.06-0.77,2.15-1.63,3.13-2.38l4.7,4.18c-0.9,1.31-1.78,2.42-2.75,3.57
			c-0.96,1.14-1.95,2.26-3.03,3.31c-1.07,1.07-2.21,2.1-3.44,3.07c-1.23,0.98-2.55,1.92-4.03,2.74c-1.49,0.82-3.12,1.59-5.08,2.07
			c-1.94,0.46-4.3,0.64-6.76-0.02c-2.47-0.63-4.69-2.21-6.16-3.89c-1-1.16-1.98-2.25-2.9-3.4c-3.71-4.55-6.99-9.26-10.1-14.05
			c-3.09-4.82-5.95-9.66-8.65-14.79L128.7,152.49z"/>
		<g>
			<path class="st9" d="M113.84,152.88c-2.26,7.68,13.64,28.62,13.64,28.62l16.03-10.31c0,0-4.71-10.68-11.11-18.83
				C125.84,143.99,116.32,144.45,113.84,152.88z"/>
			<path class="st14" d="M113.84,152.88c-2.26,7.68,13.64,28.62,13.64,28.62l16.03-10.31c0,0-4.71-10.68-11.11-18.83
				C125.84,143.99,116.32,144.45,113.84,152.88z"/>
		</g>
		<path class="st14" d="M123.61,161.89c3.3,1.41,8.15,9.35,10.67,15.23l-6.8,4.37c0,0-6.12-8.06-10.22-16.02
			C119.41,163.11,121.87,161.15,123.61,161.89z"/>
		<path class="st11" d="M164.73,178.31l2.94-8.22l8.33,3.98c0,0-1.73,7.33-7.83,7.32L164.73,178.31z"/>
		<polygon class="st11" points="175.08,164.67 178.61,168.56 176,174.06 167.67,170.08 		"/>
		<polygon class="st14" points="146.39,385.65 148.86,395.4 141.03,398.37 138.56,388.62 		"/>
		<polygon class="st14" points="85.78,388.3 94.16,388.3 93.51,398.29 85.13,398.29 		"/>
		<g>
			<path class="st9" d="M76.52,149.48c9.02,31.81,7.54,65.56,8.11,72.42c6.56-0.24,31.28-1.17,44.76-1.68
				c7.6-47.41-6.05-73.81-6.05-73.81s-2.87-0.56-6.78-0.96c-1.23-0.13-2.55-0.24-3.92-0.31c-0.76-0.05-1.53-0.07-2.31-0.09
				c-5.05-0.08-13.31,0.72-18.99,1.41c-1.19,0.15-2.4,0.33-3.57,0.52c-1.09,0.19-2.15,0.38-3.16,0.58
				C80.03,148.49,76.52,149.48,76.52,149.48z"/>
			<path class="st14" d="M76.52,149.48c9.02,31.81,7.54,65.56,8.11,72.42c6.56-0.24,31.28-1.17,44.76-1.68
				c7.6-47.41-6.05-73.81-6.05-73.81s-2.87-0.56-6.78-0.96c-1.23-0.13-2.55-0.24-3.92-0.31c-0.76-0.05-1.53-0.07-2.31-0.09
				c-5.05-0.08-13.31,0.72-18.99,1.41c-1.19,0.15-2.4,0.33-3.57,0.52c-1.09,0.19-2.15,0.38-3.16,0.58
				C80.03,148.49,76.52,149.48,76.52,149.48z"/>
		</g>
		<path class="st14" d="M86.05,163.13c0.8,3.08-0.11,17.12-3.33,20.58c-0.44-4.5-1.02-9.19-1.79-13.99L86.05,163.13z"/>
		<path class="st11" d="M91.62,124.96c1.65,6.02,3.68,17.12-0.29,21.52c3.57,3.05,8.19,6.54,15.46,6.26
			c7.27-0.28,5.63-5.18,3.52-7.67c-6.93-1.12-7.13-6.19-6.3-11.02L91.62,124.96z"/>
		<g>
			<polygon class="st9" points="106.98,151.7 108.3,152.59 103.48,153.99 104.72,151.76 			"/>
			<polygon class="st9" points="108.8,151.23 108.3,152.59 113.14,153.99 112.81,151.41 			"/>
			<path class="st2" d="M88.44,146.01l1.91-0.96c0.62-0.31,1.36-0.25,1.91,0.16c2,1.49,7.32,4.99,14.72,6.48
				c-3.83,1.83-2.88,6.72-2.88,6.72s-12.15-4.01-16.05-11.26C87.83,146.74,88.02,146.22,88.44,146.01z"/>
			<path class="st2" d="M112.44,144.75l-2.79-0.42c-0.32-0.05-0.55,0.31-0.36,0.58c0.98,1.38,2.6,4.44-0.49,6.32
				c3.83,1.83,5.01,6.29,5.01,6.29s4.98-5.37-0.83-12.46C112.85,144.9,112.65,144.78,112.44,144.75z"/>
		</g>
		<path class="st14" d="M96.67,128.66l7.34,5.37c-0.2,1.14-0.34,2.3-0.33,3.41c-2.63-0.18-6.42-2.77-6.9-5.48
			C96.54,130.62,96.5,129.31,96.67,128.66z"/>
		<path class="st12" d="M112.87,112.61c-0.34,2.9-3.12,5.41-4.93,6.04l-2.25-12.66C110.74,102.43,113.34,108.53,112.87,112.61z"/>
		<path class="st11" d="M89.09,116.1c1.46,8.18,1.89,13.05,6.54,16.8c6.99,5.64,16.73,0.7,17.75-7.76
			c0.92-7.61-1.62-19.71-10.06-22.06C95,100.76,87.64,107.92,89.09,116.1z"/>
		<path class="st12" d="M90.65,121.62c3.79,2.01,5.46-2.51,5.49-4.35c0.05-2.92-1.21-6.13-2.72-7.3c7.32-0.04,21.79-0.36,18.14-7.33
			c-3.65-6.97-10.96-6.17-16.47-2.36c-2.91,2.01-12.33,0.26-10,5.69C80.17,108.58,84.43,118.31,90.65,121.62z"/>
		<path class="st12" d="M85.88,105.52c0,0-1.61,0.15-3.61-1.23c0.58,2.59,3.2,2.65,3.2,2.65L85.88,105.52z"/>
		<path class="st11" d="M86.01,122.83c0.99,2.01,2.81,3.38,4.57,3.94c2.64,0.85,3.24-1.56,2.6-4.11c-0.58-2.29-1.82-5.41-4.51-5.15
			C86.02,117.76,84.88,120.53,86.01,122.83z"/>
		<path class="st12" d="M139.13,308.75c-3.4-25.33-9.75-88.53-9.75-88.53l-29.42,1.1c0,0,13.88,63.15,18.9,88.76
			s18.99,87.41,18.99,87.41l13.26-5.02C151.11,392.48,142.68,335.09,139.13,308.75z"/>
		<path class="st14" d="M110.95,238.35c-1.84,0.46-4.74,1.59-6.54,3.35c2.78,12.77,6.41,29.58,9.52,44.39
			C116.06,273.26,116.12,249.05,110.95,238.35z"/>
		<path class="st12" d="M113.51,220.82c0,0-6.24,68.56-9.1,92.93c-3.13,26.69-7.04,82.61-7.04,82.61H82.02
			c0,0-0.64-49.47,1.36-75.59c2.27-29.76,1.24-98.87,1.24-98.87L113.51,220.82z"/>
		<polygon class="st9" points="99.4,396.69 81.34,396.69 80.96,391.29 101.12,390.94 		"/>
		<polygon class="st9" points="152.89,392.16 137.1,398.15 135.16,393.04 152.72,386.08 		"/>
		<path class="st12" d="M101.86,116.96c0.08,0.67,0.5,1.17,0.93,1.12c0.44-0.05,0.73-0.64,0.65-1.31c-0.08-0.67-0.5-1.17-0.93-1.12
			C102.07,115.71,101.78,116.29,101.86,116.96z"/>
		<path class="st12" d="M109.44,116.09c0.08,0.67,0.5,1.17,0.93,1.12c0.44-0.05,0.73-0.64,0.65-1.31c-0.08-0.67-0.5-1.17-0.93-1.12
			S109.36,115.42,109.44,116.09z"/>
		<path class="st15" d="M107.07,116.7c0,0,1.97,3.7,3.87,5.37c-1.06,1.24-3.14,0.97-3.14,0.97L107.07,116.7z"/>
		<path class="st12" d="M105.18,125.16c-2.59-0.05-3.98-1.69-4.04-1.76c-0.07-0.08-0.06-0.21,0.03-0.28
			c0.08-0.07,0.21-0.06,0.28,0.03c0.02,0.02,1.64,1.92,4.57,1.58c0.11-0.01,0.21,0.07,0.22,0.17c0.01,0.11-0.07,0.21-0.17,0.22
			C105.75,125.16,105.46,125.17,105.18,125.16z"/>
		<path class="st12" d="M99.24,114.78c-0.07,0-0.13-0.02-0.19-0.05c-0.19-0.11-0.25-0.35-0.14-0.54c1.11-1.89,2.94-1.99,3.02-2
			c0.22-0.01,0.4,0.16,0.41,0.38c0.01,0.22-0.16,0.4-0.38,0.41l0,0c-0.06,0-1.49,0.1-2.37,1.61
			C99.51,114.72,99.37,114.79,99.24,114.78z"/>
		<path class="st12" d="M112.41,113.11c-0.13,0-0.25-0.07-0.33-0.18c-0.94-1.48-2.37-1.52-2.43-1.53c-0.22,0-0.39-0.18-0.39-0.4
			c0-0.22,0.18-0.39,0.4-0.39c0.08,0,1.91,0.04,3.09,1.89c0.12,0.18,0.06,0.43-0.12,0.55C112.56,113.09,112.48,113.11,112.41,113.11
			z"/>
		<g>
			<path class="st9" d="M96.58,408.18c-0.77,0-1.62-0.16-2.21-0.3c-0.08-0.02-0.14-0.08-0.16-0.16c-0.02-0.08,0.01-0.16,0.08-0.2
				c0.3-0.19,2.91-1.85,3.86-1.37c0.15,0.07,0.33,0.23,0.37,0.56c0.05,0.44-0.07,0.8-0.36,1.05
				C97.81,408.07,97.22,408.18,96.58,408.18z M94.94,407.6c1.44,0.29,2.53,0.23,2.97-0.15c0.19-0.17,0.27-0.4,0.23-0.72
				c-0.02-0.15-0.08-0.21-0.14-0.23C97.51,406.25,96,406.96,94.94,407.6z"/>
			<path class="st9" d="M94.42,407.88c-0.04,0-0.08-0.01-0.11-0.03c-0.06-0.04-0.1-0.11-0.1-0.18c0-0.1,0.08-2.52,1.02-3.31
				c0.24-0.21,0.52-0.29,0.83-0.26c0,0,0,0,0,0c0.48,0.06,0.62,0.35,0.66,0.52c0.22,0.93-1.36,2.77-2.2,3.24
				C94.49,407.88,94.45,407.88,94.42,407.88z M95.94,404.49c-0.16,0-0.31,0.06-0.45,0.17c-0.6,0.51-0.8,1.92-0.86,2.62
				c0.83-0.65,1.83-2.04,1.7-2.59c-0.01-0.05-0.04-0.17-0.3-0.2l0,0C96,404.49,95.97,404.49,95.94,404.49z"/>
			<path class="st9" d="M151.97,404.47c-0.07,0-0.14-0.04-0.18-0.1c-0.04-0.07-0.03-0.17,0.03-0.23c0.29-0.32,2.83-3.11,3.98-2.94
				c0.22,0.03,0.39,0.16,0.49,0.38c0,0,0,0,0,0c0.17,0.36,0.17,0.71-0.01,1.03c-0.57,1.09-2.93,1.63-4.29,1.86
				C151.99,404.47,151.98,404.47,151.97,404.47z M155.66,401.59c-0.67,0.02-2.13,1.32-3.14,2.38c1.84-0.37,3.1-0.93,3.42-1.54
				c0.11-0.21,0.11-0.44,0-0.68c-0.04-0.09-0.1-0.14-0.19-0.15C155.71,401.59,155.69,401.58,155.66,401.59z"/>
			<path class="st9" d="M151.97,404.47c-0.02,0-0.04,0-0.06-0.01c-0.07-0.02-0.12-0.07-0.14-0.14c-0.03-0.09-0.61-2.28,0.07-3.48
				c0.21-0.36,0.51-0.6,0.91-0.71l0,0c0.53-0.14,0.77,0.06,0.89,0.26c0.48,0.83-0.75,3.23-1.54,4.02
				C152.07,404.45,152.02,404.47,151.97,404.47z M153.06,400.49c-0.05,0-0.12,0.01-0.2,0.03c0,0,0,0,0,0
				c-0.29,0.08-0.51,0.25-0.67,0.52c-0.45,0.79-0.25,2.15-0.12,2.81c0.74-0.95,1.51-2.76,1.23-3.26
				C153.28,400.56,153.23,400.48,153.06,400.49z M152.8,400.33L152.8,400.33L152.8,400.33z"/>
		</g>
		<g>
			<path class="st13" d="M85.72,161.32c-2.51,5.18-5.07,10.52-7.55,15.78c-1.23,2.64-2.47,5.28-3.63,7.93L72.8,189l-0.83,1.99
				l-0.21,0.5l-0.15,0.37c-0.1,0.24-0.17,0.48-0.26,0.71c-0.6,1.91-0.76,3.92-0.33,6.08c0.39,2.17,1.34,4.44,2.64,6.65
				c1.3,2.22,2.93,4.39,4.76,6.45c0.91,1.04,1.86,2.06,2.86,3.03c0.5,0.49,1.01,0.97,1.53,1.43c0.5,0.47,1.06,0.96,1.5,1.35
				l-3.34,5.33c-1.55-0.79-2.85-1.56-4.19-2.45c-1.33-0.88-2.63-1.8-3.89-2.8c-2.51-2.01-4.88-4.29-6.99-6.96
				c-2.09-2.66-3.93-5.76-5.05-9.36c-1.11-3.58-1.39-7.72-0.48-11.58c0.12-0.48,0.23-0.96,0.38-1.43l0.39-1.24l0.71-2.2
				c0.49-1.45,0.98-2.91,1.52-4.34c1.05-2.87,2.15-5.71,3.33-8.51c2.34-5.63,4.87-11.05,7.72-16.5L85.72,161.32z"/>
			<g>
				<path class="st9" d="M76.52,149.48c-7.64,2.39-15.15,28.3-15.15,28.3l17.68,7.74c0,0,5.72-12.52,9.01-22.33
					C91.63,152.5,85.77,146.58,76.52,149.48z"/>
				<path class="st14" d="M76.52,149.48c-7.64,2.39-15.15,28.3-15.15,28.3l17.68,7.74c0,0,5.72-12.52,9.01-22.33
					C91.63,152.5,85.77,146.58,76.52,149.48z"/>
			</g>
			<path class="st11" d="M82.46,215.92l7.31,4.35l-7.11,7.08c0,0-6.18-4.75-4.33-8.47L82.46,215.92z"/>
			<polygon class="st11" points="94.66,227.19 87.32,232.33 82.66,227.34 89.77,220.26 			"/>
		</g>
	</g>
</g>
<g id="Screen">
	<g>
		<g>
			
				<rect x="446.3" y="215.99" transform="matrix(0.0722 -0.9974 0.9974 0.0722 200.3721 648.4017)" class="st9" width="4.83" height="1"/>
			
				<rect x="442.69" y="202.34" transform="matrix(0.0723 -0.9974 0.9974 0.0723 214.9011 636.7047)" class="st9" width="14.01" height="1"/>
			<path class="st9" d="M422.32,352.96H177.39c-7.48,0-13.17-6.12-12.63-13.61l12.96-180.8c0.54-7.48,7.1-13.61,14.58-13.61h244.94
				c7.48,0,13.17,6.12,12.63,13.61l-12.96,180.8C436.37,346.84,429.81,352.96,422.32,352.96z"/>
			<polygon class="st9" points="365.35,416.24 285.84,416.24 271.67,318 351.18,318 			"/>
			<polygon class="st9" points="352.72,410.38 266.72,410.38 265.01,416.24 351.02,416.24 			"/>
			<polygon class="st12" points="355.37,365.29 277.88,361.06 271.67,318 348.55,318 			"/>
			<path class="st12" d="M419.56,352.96H174.62c-7.48,0-13.17-6.12-12.63-13.61l12.96-180.8c0.54-7.48,7.1-13.61,14.58-13.61h244.94
				c7.48,0,13.17,6.12,12.63,13.61l-12.96,180.8C433.61,346.84,427.04,352.96,419.56,352.96z"/>
			
				<rect x="391.26" y="211.73" transform="matrix(0.0716 -0.9974 0.9974 0.0716 199.8676 639.1325)" class="st2" width="103.98" height="0.96"/>
			
				<rect x="419.6" y="290.55" transform="matrix(0.0715 -0.9974 0.9974 0.0715 116.0421 706.7129)" class="st2" width="36.01" height="0.96"/>
		</g>
		<g>
			<g>
				<path class="st2" d="M419.04,349.58H175.62c-5.83,0-10.25-4.77-9.83-10.59l12.91-180.06c0.42-5.83,5.53-10.59,11.35-10.59
					h243.42c5.83,0,10.25,4.77,9.83,10.59l-12.91,180.06C429.97,344.81,424.87,349.58,419.04,349.58z"/>
				<path class="st16" d="M419.04,349.58H175.62c-5.83,0-10.25-4.77-9.83-10.59l12.91-180.06c0.42-5.83,5.53-10.59,11.35-10.59
					h243.42c5.83,0,10.25,4.77,9.83,10.59l-12.91,180.06C429.97,344.81,424.87,349.58,419.04,349.58z"/>
				<path class="st17" d="M238.06,341.6h-56.85c-2.81,0-4.95-2.3-4.75-5.12l12.55-175.05c0.2-2.81,2.67-5.12,5.48-5.12h56.85
					c2.81,0,4.95,2.3,4.75,5.12l-12.55,175.05C243.35,339.29,240.88,341.6,238.06,341.6z"/>
			</g>
			<path class="st18" d="M235.86,180.99h-29.42c-2.54,0-4.46-2.07-4.28-4.61l0.32-4.51c0.18-2.54,2.4-4.61,4.94-4.61h29.42
				c2.54,0,4.46,2.07,4.28,4.61l-0.32,4.51C240.62,178.91,238.4,180.99,235.86,180.99z"/>
			<g>
				<path class="st9" d="M217.15,251.8h-44.92c-4.42,0-7.78-3.62-7.47-8.04l3.22-44.92c0.32-4.42,4.2-8.04,8.62-8.04h44.92
					c4.42,0,7.78,3.62,7.47,8.04l-3.22,44.92C225.46,248.18,221.58,251.8,217.15,251.8z"/>
				<path class="st2" d="M223.59,214.97c-1.69,0-3.16,1.38-3.28,3.06l-0.47,6.52c-0.12,1.69,1.16,3.06,2.85,3.06h4.56
					c0.42,0,0.78-0.34,0.81-0.76l0.8-11.13c0.03-0.42-0.29-0.76-0.71-0.76H223.59z"/>
				<path class="st2" d="M206.26,202.23h-28.31c-0.68,0-1.19-0.55-1.14-1.23l0,0c0.05-0.68,0.64-1.23,1.32-1.23h28.31
					c0.68,0,1.19,0.55,1.14,1.23l0,0C207.53,201.67,206.94,202.23,206.26,202.23z"/>
				<path class="st2" d="M205.82,208.48H177.5c-0.68,0-1.19-0.55-1.14-1.23l0,0c0.05-0.68,0.64-1.23,1.32-1.23h28.31
					c0.68,0,1.19,0.55,1.14,1.23l0,0C207.08,207.93,206.49,208.48,205.82,208.48z"/>
				<path class="st2" d="M195.58,214.74h-18.53c-0.68,0-1.19-0.55-1.14-1.23l0,0c0.05-0.68,0.64-1.23,1.32-1.23h18.53
					c0.68,0,1.19,0.55,1.14,1.23l0,0C196.85,214.18,196.26,214.74,195.58,214.74z"/>
				<path class="st17" d="M206.34,244.54h-27.39c-2.89,0-5.09-2.37-4.88-5.26l1.03-14.39c0.21-2.89,2.74-5.26,5.63-5.26h27.39
					c2.89,0,5.09,2.37,4.88,5.26l-1.03,14.39C211.76,242.17,209.23,244.54,206.34,244.54z"/>
			</g>
			<g>
				<path class="st18" d="M231.91,268.62h-34.08c-1.25,0-2.21-1.03-2.12-2.28l0,0c0.09-1.25,1.19-2.28,2.44-2.28h34.08
					c1.25,0,2.21,1.03,2.12,2.28l0,0C234.26,267.6,233.16,268.62,231.91,268.62z"/>
				<path class="st19" d="M225.04,277.57h-21.63c-1.25,0-2.21-1.03-2.12-2.28l0,0c0.09-1.25,1.19-2.28,2.44-2.28h21.63
					c1.25,0,2.21,1.03,2.12,2.28l0,0C227.39,276.54,226.3,277.57,225.04,277.57z"/>
				<path class="st18" d="M230.14,293.31h-34.08c-1.25,0-2.21-1.03-2.12-2.28l0,0c0.09-1.25,1.19-2.28,2.44-2.28h34.08
					c1.25,0,2.21,1.03,2.12,2.28l0,0C232.49,292.28,231.4,293.31,230.14,293.31z"/>
				<path class="st19" d="M223.27,302.25h-21.63c-1.25,0-2.21-1.03-2.12-2.28l0,0c0.09-1.25,1.19-2.28,2.44-2.28h21.63
					c1.25,0,2.21,1.03,2.12,2.28l0,0C225.63,301.23,224.53,302.25,223.27,302.25z"/>
				<path class="st18" d="M228.37,318h-34.08c-1.25,0-2.21-1.03-2.12-2.28l0,0c0.09-1.25,1.19-2.28,2.44-2.28h34.08
					c1.25,0,2.21,1.03,2.12,2.28l0,0C230.72,316.97,229.63,318,228.37,318z"/>
				<path class="st19" d="M221.5,326.94h-21.63c-1.25,0-2.21-1.03-2.12-2.28v0c0.09-1.25,1.19-2.28,2.44-2.28h21.63
					c1.25,0,2.21,1.03,2.12,2.28v0C223.86,325.92,222.76,326.94,221.5,326.94z"/>
			</g>
			<g>
				<path class="st20" d="M421.68,290.27c1.48-2.25,4.86-1.3,4.68,1.31l-3.28,45.75c-0.17,2.36-1.95,4.27-3.97,4.27H254.27
					c-2.02,0-3.53-1.92-3.36-4.27l1.95-27.18c0.26-3.67,3.99-6.31,7.42-5.24c9.29,2.9,17.25,1.2,24.65-2.47
					c15.82-7.86,29.06-24.71,47.25-24.71c0.7,0,1.38,0.02,2.05,0.06c27.06,1.63,35.3,35.24,56.27,35.24c6.2,0,11.85-2.67,16.78-6.49
					C413.32,301.87,418.25,295.5,421.68,290.27z"/>
				<path class="st20" d="M425.1,309.12l-2.02,28.21c-0.17,2.36-1.95,4.27-3.97,4.27H254.27c-2.02,0-3.53-1.92-3.36-4.27l4.02-56.06
					c0.28-3.84,5.31-5.45,7.34-2.35c5.26,8.02,13.35,18.39,22.66,23.51c3.57,1.96,7.3,3.15,11.13,3.15
					c13.32,0,24.65-15.8,38.17-27.8c8.3-7.36,17.42-13.3,28.32-13.3c22.77,0,26.13,37,44.72,42.06c3.58,0.98,7.73,0.77,12.69-1.13
					C422.64,304.39,425.3,306.34,425.1,309.12z"/>
				<g class="st21">
					<path class="st2" d="M425.91,298.18c-0.09,0-0.17-0.04-0.24-0.1c-0.03-0.03-0.06-0.07-0.07-0.11
						c-0.02-0.04-0.03-0.09-0.03-0.13c0-0.1,0.04-0.18,0.1-0.24c0.12-0.13,0.35-0.14,0.48,0c0.07,0.06,0.1,0.15,0.1,0.24
						c0,0.04-0.01,0.09-0.02,0.13c-0.02,0.04-0.05,0.08-0.08,0.11C426.09,298.14,426,298.18,425.91,298.18z"/>
					<path class="st2" d="M265.64,321.61c-0.19,0-0.34-0.15-0.34-0.34l0,0c0-0.18,0.15-0.33,0.34-0.33v-0.01
						c0.19,0,0.34,0.16,0.34,0.34l0,0c0,0.19-0.15,0.35-0.34,0.35l0,0C265.64,321.62,265.64,321.62,265.64,321.61z M262.21,321.42
						C262.21,321.42,262.21,321.42,262.21,321.42L262.21,321.42c-0.18-0.01-0.32-0.18-0.3-0.37l0,0c0.02-0.19,0.19-0.32,0.38-0.3
						l0,0c0.19,0.02,0.32,0.19,0.3,0.37l0,0c-0.02,0.18-0.17,0.31-0.34,0.31l0,0C262.24,321.43,262.23,321.43,262.21,321.42z
						 M268.68,321.12c-0.02-0.19,0.11-0.36,0.3-0.38l0,0c0.19-0.02,0.36,0.11,0.38,0.3l0,0c0.02,0.19-0.11,0.36-0.3,0.38l0,0
						c-0.01,0-0.03,0-0.04,0l0,0C268.85,321.42,268.7,321.29,268.68,321.12z M258.83,320.9c-0.18-0.04-0.3-0.22-0.27-0.41l0,0
						c0.04-0.18,0.22-0.3,0.41-0.27l0,0c0.18,0.04,0.3,0.22,0.27,0.41l0,0c-0.04,0.16-0.18,0.27-0.34,0.27l0,0
						C258.88,320.9,258.85,320.9,258.83,320.9z M272.02,320.56c-0.05-0.19,0.06-0.37,0.25-0.42l0,0c0.18-0.04,0.36,0.07,0.41,0.25
						l0,0c0.05,0.18-0.07,0.37-0.25,0.42l0,0c0,0,0,0,0-0.01l0,0c-0.03,0.01-0.06,0.01-0.08,0.01l0,0
						C272.19,320.81,272.05,320.71,272.02,320.56z M381.39,320.7c-0.19,0-0.34-0.15-0.34-0.34l0,0c0-0.19,0.16-0.34,0.34-0.34l0,0
						c0.19,0,0.34,0.15,0.34,0.34l0,0C381.73,320.55,381.58,320.7,381.39,320.7L381.39,320.7L381.39,320.7z M384.44,320.22
						c-0.02-0.19,0.12-0.36,0.3-0.37l0,0c0.19-0.03,0.36,0.11,0.38,0.3l0,0c0.02,0.19-0.12,0.36-0.31,0.38l0,0
						c-0.01,0-0.02,0-0.03,0l0,0C384.61,320.53,384.46,320.4,384.44,320.22z M377.97,320.49c-0.18-0.02-0.32-0.19-0.29-0.38l0,0
						c0.02-0.19,0.19-0.32,0.38-0.3l0,0c0.19,0.03,0.32,0.2,0.3,0.38l0,0c-0.03,0.18-0.17,0.31-0.34,0.31l0,0
						C378,320.5,377.99,320.5,377.97,320.49z M255.51,320.08c-0.18-0.05-0.29-0.24-0.24-0.42l0,0c0.06-0.18,0.24-0.29,0.43-0.24l0,0
						c0.18,0.06,0.28,0.24,0.23,0.43l0,0c-0.04,0.15-0.18,0.24-0.33,0.24l0,0C255.57,320.09,255.54,320.09,255.51,320.08z
						 M387.8,319.75c-0.04-0.19,0.08-0.37,0.27-0.4l0,0c0.18-0.04,0.36,0.08,0.4,0.27l0,0c0.04,0.18-0.08,0.36-0.27,0.4l0,0l0,0l0,0
						c-0.02,0-0.04,0.01-0.06,0.01l0,0C387.98,320.03,387.83,319.91,387.8,319.75z M374.61,319.87c-0.19-0.04-0.3-0.22-0.25-0.41
						l0,0c0.04-0.18,0.22-0.29,0.41-0.25l0,0c0.18,0.04,0.29,0.23,0.25,0.41l0,0c-0.04,0.16-0.18,0.26-0.33,0.26l0,0
						C374.66,319.88,374.63,319.88,374.61,319.87z M275.26,319.59c-0.07-0.18,0.02-0.38,0.2-0.44l0,0c0.17-0.07,0.37,0.02,0.44,0.19
						l0,0c0.06,0.18-0.02,0.38-0.2,0.44l0,0c-0.04,0.02-0.08,0.03-0.12,0.03l0,0C275.44,319.81,275.31,319.72,275.26,319.59z
						 M391.11,319c-0.05-0.19,0.05-0.38,0.24-0.43l0,0c0.18-0.05,0.37,0.06,0.42,0.24l0,0c0.05,0.18-0.06,0.37-0.24,0.42l0,0l0,0
						l0,0c-0.03,0.01-0.06,0.02-0.09,0.02l0,0C391.29,319.25,391.15,319.15,391.11,319z M371.33,318.88L371.33,318.88L371.33,318.88
						c-0.18-0.06-0.27-0.26-0.21-0.43l0,0c0.07-0.18,0.26-0.27,0.44-0.21l0,0c0.18,0.07,0.27,0.26,0.21,0.44l0,0
						c-0.05,0.14-0.19,0.22-0.33,0.22l0,0C371.4,318.9,371.36,318.9,371.33,318.88z M278.37,318.24c-0.09-0.16-0.02-0.37,0.15-0.46
						l0,0c0.17-0.08,0.37-0.01,0.46,0.16l0,0c0.08,0.16,0.02,0.37-0.15,0.45l0,0l0,0l0,0c-0.05,0.03-0.1,0.04-0.16,0.04l0,0
						C278.55,318.43,278.43,318.36,278.37,318.24z M394.36,318c-0.07-0.18,0.03-0.37,0.2-0.43l0.01-0.01
						c0.17-0.06,0.37,0.04,0.43,0.21l0,0c0.06,0.18-0.03,0.38-0.21,0.44l0,0c-0.04,0.01-0.07,0.02-0.11,0.02l0,0
						C394.54,318.23,394.41,318.14,394.36,318z M368.17,317.58L368.17,317.58L368.17,317.58c-0.17-0.07-0.25-0.28-0.17-0.45l0,0
						c0.08-0.17,0.28-0.24,0.45-0.17l0,0c0.18,0.08,0.25,0.28,0.17,0.46l0,0c-0.06,0.12-0.18,0.2-0.31,0.2l0,0
						C368.26,317.62,368.21,317.61,368.17,317.58z M397.53,316.8c-0.07-0.17,0.01-0.37,0.19-0.44l0,0c0.17-0.08,0.37,0,0.44,0.18
						l0,0c0.08,0.17,0,0.37-0.18,0.45l0,0l0,0l0,0c-0.04,0.02-0.09,0.02-0.13,0.02l0,0C397.71,317.01,397.59,316.93,397.53,316.8z
						 M281.33,316.6c-0.1-0.16-0.05-0.38,0.11-0.48l0,0c0.16-0.1,0.37-0.05,0.47,0.11l0,0c0.1,0.16,0.05,0.37-0.11,0.47l0,0l0,0l0,0
						c-0.05,0.04-0.12,0.06-0.18,0.06l0,0C281.51,316.76,281.4,316.7,281.33,316.6z M365.12,316.05L365.12,316.05L365.12,316.05
						c-0.17-0.09-0.23-0.3-0.14-0.47l0,0c0.09-0.16,0.3-0.22,0.47-0.13l0,0c0.16,0.09,0.22,0.29,0.13,0.46l0,0
						c-0.06,0.11-0.18,0.18-0.3,0.18l0,0C365.23,316.09,365.17,316.07,365.12,316.05z M400.64,315.43
						c-0.08-0.17-0.01-0.37,0.16-0.45l0,0c0.17-0.08,0.38-0.01,0.46,0.16l0,0c0.08,0.17,0,0.37-0.17,0.45l0,0c0,0,0,0,0.01,0.01l0,0
						c-0.05,0.02-0.1,0.03-0.15,0.03l0,0C400.82,315.63,400.7,315.56,400.64,315.43z M284.15,314.72c-0.11-0.16-0.07-0.37,0.08-0.48
						l0,0c0.15-0.11,0.37-0.08,0.48,0.07l0,0c0.11,0.15,0.07,0.37-0.08,0.48l0,0c-0.06,0.04-0.13,0.07-0.2,0.07l0,0
						C284.32,314.86,284.22,314.81,284.15,314.72z M362.17,314.34C362.17,314.34,362.17,314.34,362.17,314.34L362.17,314.34
						c-0.16-0.1-0.21-0.31-0.11-0.47l0,0c0.09-0.17,0.3-0.22,0.46-0.12l0,0c0.17,0.1,0.22,0.31,0.12,0.47l0,0
						c-0.07,0.11-0.18,0.17-0.29,0.17l0,0C362.29,314.39,362.22,314.37,362.17,314.34z M403.68,313.91
						c-0.09-0.16-0.03-0.37,0.14-0.46l0,0c0.16-0.09,0.37-0.02,0.46,0.14l0,0c0.09,0.17,0.03,0.37-0.14,0.47l0,0
						c-0.05,0.02-0.11,0.04-0.16,0.04l0,0C403.86,314.1,403.74,314.03,403.68,313.91z M286.87,312.67c-0.12-0.15-0.1-0.36,0.05-0.48
						l0,0c0.15-0.12,0.36-0.09,0.48,0.05l0,0c0.12,0.15,0.09,0.37-0.05,0.49l0,0c-0.07,0.05-0.14,0.07-0.22,0.07l0,0
						C287.03,312.8,286.93,312.76,286.87,312.67z M359.29,312.52C359.29,312.52,359.29,312.52,359.29,312.52L359.29,312.52
						c-0.16-0.11-0.2-0.32-0.1-0.48l0,0c0.11-0.16,0.32-0.2,0.48-0.1l0,0c0.15,0.1,0.2,0.32,0.1,0.47l0,0
						c-0.07,0.11-0.18,0.16-0.29,0.16l0,0C359.41,312.57,359.35,312.55,359.29,312.52z M406.65,312.27
						c-0.1-0.17-0.04-0.37,0.12-0.47l0,0c0.16-0.09,0.37-0.04,0.47,0.12l0,0c0.09,0.16,0.04,0.37-0.12,0.47l0,0
						c-0.06,0.03-0.12,0.05-0.18,0.05l0,0C406.83,312.44,406.71,312.38,406.65,312.27z M356.46,310.63
						c-0.15-0.11-0.2-0.32-0.09-0.48l0,0c0.11-0.15,0.32-0.19,0.48-0.09l0,0c0.15,0.11,0.19,0.32,0.09,0.48l0,0
						c-0.07,0.1-0.18,0.15-0.29,0.15l0,0C356.59,310.69,356.52,310.67,356.46,310.63z M409.55,310.51c-0.1-0.16-0.05-0.37,0.11-0.48
						l0,0c0.16-0.1,0.37-0.05,0.47,0.11l0,0c0.1,0.16,0.05,0.37-0.11,0.47l0,0l0,0l0,0c-0.05,0.04-0.11,0.06-0.18,0.06l0,0
						C409.73,310.67,409.62,310.61,409.55,310.51z M289.5,310.53c-0.12-0.14-0.1-0.36,0.04-0.48l0,0c0.15-0.12,0.37-0.1,0.49,0.04
						l0,0c0.12,0.15,0.1,0.36-0.05,0.48l0,0c-0.06,0.06-0.14,0.08-0.22,0.08l0,0C289.67,310.65,289.57,310.61,289.5,310.53z
						 M412.4,308.65c-0.11-0.16-0.07-0.37,0.08-0.48l0,0c0.16-0.11,0.37-0.07,0.48,0.09l0,0c0.1,0.15,0.07,0.37-0.09,0.47l0,0
						c-0.06,0.04-0.13,0.06-0.19,0.06l0,0C412.57,308.79,412.46,308.74,412.4,308.65z M353.65,308.73c-0.16-0.11-0.2-0.32-0.09-0.47
						l0,0c0.1-0.16,0.31-0.2,0.47-0.1l0,0c0.16,0.11,0.2,0.32,0.09,0.48l0,0c-0.06,0.1-0.17,0.15-0.28,0.15l0,0
						C353.78,308.79,353.71,308.77,353.65,308.73z M292.11,308.35c-0.13-0.14-0.11-0.36,0.04-0.48l0,0c0.14-0.12,0.36-0.1,0.48,0.04
						l0,0c0.12,0.15,0.1,0.36-0.04,0.48l0,0l0,0l0,0c-0.07,0.06-0.14,0.08-0.22,0.08l0,0C292.27,308.47,292.17,308.43,292.11,308.35
						z M350.83,306.85c-0.16-0.11-0.21-0.32-0.1-0.47l0,0c0.1-0.16,0.32-0.21,0.47-0.1l0,0c0.16,0.1,0.2,0.31,0.1,0.47l0,0
						c-0.06,0.1-0.17,0.15-0.28,0.15l0,0C350.95,306.9,350.89,306.89,350.83,306.85z M415.18,306.69c-0.12-0.15-0.08-0.36,0.07-0.47
						l0,0c0.15-0.11,0.37-0.08,0.48,0.07l0,0c0.11,0.15,0.07,0.37-0.08,0.48l0,0c-0.06,0.04-0.13,0.06-0.2,0.06l0,0
						C415.35,306.83,415.24,306.79,415.18,306.69z M294.72,306.18c-0.12-0.14-0.1-0.36,0.05-0.48l0,0c0.15-0.12,0.36-0.09,0.48,0.05
						l0,0c0.12,0.15,0.1,0.37-0.05,0.48l0,0c-0.06,0.06-0.14,0.08-0.22,0.08l0,0C294.89,306.31,294.79,306.27,294.72,306.18z
						 M347.98,305.02c-0.16-0.1-0.21-0.31-0.11-0.47l0,0c0.1-0.16,0.31-0.21,0.47-0.11l0,0c0.16,0.1,0.21,0.31,0.11,0.47l0,0
						c-0.07,0.11-0.18,0.17-0.29,0.17l0,0C348.1,305.08,348.03,305.06,347.98,305.02z M417.9,304.66c-0.12-0.15-0.09-0.37,0.06-0.48
						l0,0c0.15-0.12,0.36-0.09,0.48,0.06l0,0c0.11,0.15,0.08,0.36-0.06,0.48l0,0c0,0,0,0-0.01,0l0,0c-0.06,0.05-0.13,0.07-0.2,0.07
						l0,0C418.06,304.79,417.96,304.74,417.9,304.66z M297.38,304.08c-0.11-0.15-0.08-0.37,0.07-0.48l0,0
						c0.15-0.11,0.36-0.08,0.48,0.07l0,0c0.11,0.15,0.08,0.36-0.07,0.48l0,0c-0.06,0.04-0.13,0.07-0.2,0.07l0,0
						C297.55,304.22,297.45,304.17,297.38,304.08z M345.07,303.29c-0.16-0.09-0.22-0.3-0.12-0.47l0,0c0.09-0.16,0.3-0.22,0.46-0.12
						l0,0c0.17,0.09,0.23,0.3,0.13,0.46l0,0c-0.06,0.11-0.18,0.18-0.3,0.18l0,0C345.19,303.34,345.13,303.32,345.07,303.29z
						 M420.55,302.54c-0.12-0.14-0.1-0.36,0.05-0.48l0,0c0.15-0.12,0.36-0.1,0.48,0.05l0,0c0.12,0.14,0.1,0.36-0.04,0.48l0,0
						c-0.07,0.05-0.15,0.08-0.22,0.08l0,0C420.72,302.67,420.62,302.63,420.55,302.54z M300.14,302.1
						c-0.11-0.16-0.07-0.37,0.09-0.48l0,0c0.16-0.1,0.37-0.06,0.48,0.1l0,0c0.1,0.15,0.06,0.37-0.1,0.47l0,0
						c-0.06,0.04-0.12,0.06-0.19,0.06l0,0C300.31,302.25,300.2,302.19,300.14,302.1z M342.1,301.68c-0.16-0.08-0.23-0.29-0.14-0.46
						l0,0c0.08-0.17,0.29-0.23,0.46-0.15l0,0c0.16,0.09,0.23,0.3,0.15,0.47l0,0c-0.06,0.11-0.19,0.18-0.31,0.18l0,0
						C342.21,301.72,342.15,301.71,342.1,301.68z M423.15,300.35c-0.12-0.14-0.11-0.36,0.03-0.48h0.01
						c0.14-0.12,0.35-0.11,0.48,0.03l0,0c0.12,0.14,0.1,0.36-0.04,0.48l0,0c-0.06,0.06-0.14,0.09-0.22,0.09l0,0
						C423.31,300.47,423.22,300.43,423.15,300.35z M303.01,300.29c-0.1-0.16-0.04-0.37,0.13-0.47l0,0c0.16-0.09,0.37-0.03,0.46,0.13
						l0,0c0.09,0.17,0.04,0.37-0.13,0.47l0,0c0,0,0,0,0.01,0l0,0c-0.06,0.03-0.12,0.04-0.17,0.04l0,0
						C303.19,300.46,303.07,300.4,303.01,300.29z M339.06,300.23L339.06,300.23L339.06,300.23c-0.17-0.08-0.25-0.28-0.17-0.45l0,0
						c0.07-0.17,0.28-0.25,0.45-0.17l0,0c0.17,0.07,0.25,0.27,0.17,0.45l0,0c-0.05,0.12-0.18,0.2-0.31,0.2l0,0
						C339.15,300.26,339.11,300.25,339.06,300.23z M335.94,298.96c-0.18-0.06-0.27-0.26-0.2-0.44l0,0c0.06-0.17,0.26-0.26,0.44-0.2
						l0,0c0.17,0.07,0.26,0.26,0.2,0.44l0,0c-0.05,0.14-0.18,0.22-0.32,0.22l0,0C336.02,298.98,335.98,298.98,335.94,298.96z
						 M306.01,298.72c-0.07-0.17,0-0.38,0.17-0.45l0,0c0.17-0.08,0.38-0.01,0.46,0.17l0,0c0.07,0.17,0,0.37-0.18,0.45l0,0
						c-0.04,0.02-0.09,0.03-0.14,0.03l0,0C306.19,298.92,306.07,298.85,306.01,298.72z M332.74,297.91
						c-0.18-0.06-0.28-0.24-0.23-0.43l0,0c0.05-0.18,0.25-0.28,0.43-0.23l0,0c0.18,0.05,0.28,0.24,0.23,0.43l0,0
						c-0.05,0.14-0.18,0.24-0.33,0.24l0,0C332.81,297.92,332.78,297.92,332.74,297.91z M309.15,297.44
						c-0.06-0.18,0.04-0.37,0.22-0.43l0,0c0.18-0.06,0.37,0.04,0.43,0.22l0,0c0.06,0.18-0.04,0.37-0.22,0.43l0,0
						c-0.03,0.01-0.07,0.02-0.11,0.02l0,0C309.33,297.68,309.2,297.59,309.15,297.44z M329.48,297.08c-0.18-0.04-0.3-0.22-0.26-0.4
						l0,0c0.04-0.19,0.22-0.31,0.41-0.26l0,0c0.18,0.03,0.3,0.21,0.26,0.4l0,0c-0.03,0.16-0.18,0.27-0.34,0.27l0,0
						C329.53,297.09,329.51,297.09,329.48,297.08z M312.4,296.51c-0.04-0.19,0.08-0.37,0.27-0.41l0,0c0.18-0.04,0.36,0.08,0.4,0.26
						l0,0c0.04,0.19-0.07,0.37-0.26,0.41l0,0c-0.02,0-0.05,0.01-0.07,0.01l0,0C312.58,296.78,312.44,296.67,312.4,296.51z
						 M326.17,296.5L326.17,296.5L326.17,296.5c-0.18-0.03-0.32-0.2-0.29-0.39l0,0c0.02-0.19,0.2-0.32,0.38-0.29h0.01
						c0.18,0.02,0.31,0.2,0.29,0.39l0,0c-0.03,0.16-0.17,0.29-0.34,0.29l0,0C326.2,296.5,326.19,296.5,326.17,296.5z M315.74,295.93
						c-0.02-0.19,0.12-0.35,0.3-0.37l0,0c0.19-0.03,0.36,0.11,0.38,0.3l0,0c0.02,0.19-0.12,0.35-0.31,0.38l0,0
						c-0.01,0-0.02,0-0.03,0l0,0C315.91,296.24,315.76,296.11,315.74,295.93z M322.82,296.15c0,0,0,0,0.01,0l0,0
						c-0.19-0.01-0.34-0.17-0.32-0.36l0,0c0.01-0.19,0.17-0.33,0.36-0.32l0,0c0.19,0.01,0.33,0.18,0.32,0.37l0,0
						c-0.01,0.18-0.16,0.32-0.34,0.32l0,0C322.84,296.16,322.83,296.15,322.82,296.15z M319.12,295.71
						c-0.01-0.19,0.15-0.34,0.34-0.34l0,0c0.18-0.01,0.34,0.15,0.34,0.34l0,0c0,0.19-0.15,0.34-0.34,0.34l0,0l0,0l0,0
						C319.27,296.05,319.12,295.9,319.12,295.71z"/>
					<path class="st2" d="M252.25,319.01c-0.04,0-0.09-0.01-0.13-0.03c-0.04-0.02-0.08-0.04-0.11-0.08
						c-0.03-0.03-0.06-0.06-0.07-0.11c-0.02-0.04-0.03-0.08-0.03-0.13c0-0.09,0.04-0.17,0.1-0.24c0.03-0.03,0.07-0.06,0.11-0.07
						c0.08-0.04,0.18-0.04,0.26,0c0.05,0.01,0.08,0.04,0.11,0.07c0.07,0.07,0.1,0.15,0.1,0.24c0,0.05,0,0.09-0.02,0.13
						c-0.02,0.05-0.04,0.08-0.08,0.11c-0.03,0.04-0.07,0.06-0.11,0.08C252.34,319,252.3,319.01,252.25,319.01z"/>
				</g>
			</g>
			<g>
				<g>
					<path class="st2" d="M307.08,216.61L307.08,216.61l-2.34-2.52c-4.14,3.87-9.66,6.26-15.56,6.26c-9.89,0-17.73-6.72-19.51-15.84
						l-3.5,0.92c0,0,0,0,0,0l-3.2,0.84c0.94,4.78,3.14,9.14,6.39,12.64c10.15,10.93,28.14,10.93,39.86,0L307.08,216.61z"/>
					<path class="st12" d="M312.07,179.05l-3.06,2.85c0,0,0,0,0,0l-2.11,1.97c3.59,3.86,5.61,9.21,5.18,15.11
						c-0.42,5.9-3.2,11.25-7.34,15.12l1.83,1.97l0,0l2.64,2.84c5.66-5.29,9.15-12.45,9.68-19.93
						C319.44,191.51,316.98,184.33,312.07,179.05z"/>
					<path class="st9" d="M312.07,179.05c-10.15-10.93-28.14-10.93-39.86,0c-7.62,7.11-11.15,17.51-9.25,27.22l3.96-1.04
						c0,0,0,0,0,0l2.74-0.72c-0.34-1.76-0.46-3.62-0.32-5.53c0.85-11.8,11.1-21.37,22.9-21.37c5.9,0,11.07,2.39,14.66,6.26l2.7-2.52
						c0,0,0,0,0,0L312.07,179.05z"/>
				</g>
				<g>
					<path class="st2" d="M340.8,216.61L340.8,216.61l2.7-2.52c-3.59-3.87-5.6-9.21-5.17-15.12c0.71-9.89,8.02-18.21,17.32-20.65
						l-0.67-3.44c0,0,0,0,0,0l-0.62-3.14c-4.87,1.28-9.41,3.8-13.16,7.29c-11.72,10.93-13.01,28.92-2.86,39.86L340.8,216.61z"/>
					<path class="st12" d="M378.19,218.91l-2.65-2.85c0,0,0,0,0,0l-1.83-1.97c-4.14,3.87-9.65,6.26-15.56,6.26
						c-5.9,0-11.08-2.39-14.67-6.26l-2.11,1.97h0l-3.05,2.84c4.91,5.29,11.86,8.26,19.34,8.26
						C365.14,227.16,372.53,224.19,378.19,218.91z"/>
					<path class="st9" d="M378.19,218.91c11.71-10.93,13-28.92,2.86-39.86c-6.6-7.11-16.8-9.89-26.7-7.29l0.76,3.88c0,0,0,0,0,0
						l0.53,2.69c1.8-0.47,3.68-0.72,5.58-0.72c11.8,0,20.68,9.57,19.83,21.37c-0.42,5.9-3.2,11.24-7.34,15.11l2.34,2.52c0,0,0,0,0,0
						L378.19,218.91z"/>
				</g>
			</g>
			<path class="st22" d="M425.42,173.31c0.57,0,1.09,0.22,1.47,0.62c0.38,0.4,0.56,0.94,0.52,1.52l-1.24,17.25
				c-0.09,1.23-1.2,2.27-2.43,2.27h-17.25c-0.57,0-1.09-0.22-1.47-0.62c-0.38-0.4-0.56-0.94-0.52-1.52l1.24-17.25
				c0.09-1.23,1.2-2.27,2.43-2.27H425.42 M425.42,172.42h-17.25c-1.7,0-3.19,1.39-3.31,3.09l-1.24,17.25
				c-0.12,1.7,1.17,3.09,2.87,3.09h17.25c1.7,0,3.19-1.39,3.31-3.09l1.24-17.25C428.41,173.81,427.12,172.42,425.42,172.42
				L425.42,172.42z"/>
			<path class="st22" d="M423.29,202.99c0.57,0,1.09,0.22,1.47,0.62c0.38,0.4,0.56,0.94,0.52,1.52l-1.24,17.25
				c-0.09,1.23-1.2,2.27-2.43,2.27h-17.25c-0.57,0-1.09-0.22-1.47-0.62c-0.38-0.4-0.56-0.94-0.52-1.52l1.24-17.25
				c0.09-1.23,1.2-2.27,2.43-2.27H423.29 M423.29,202.1h-17.25c-1.7,0-3.19,1.39-3.31,3.09l-1.24,17.25
				c-0.12,1.7,1.17,3.09,2.87,3.09h17.25c1.7,0,3.19-1.39,3.31-3.09l1.24-17.25C426.28,203.49,424.99,202.1,423.29,202.1
				L423.29,202.1z"/>
			<path class="st9" d="M398.04,298.43c0.48,0,0.92,0.19,1.24,0.52c0.31,0.34,0.47,0.79,0.43,1.28c-0.08,1.06-1,1.93-2.06,1.93
				c-0.48,0-0.92-0.19-1.24-0.52c-0.31-0.34-0.47-0.79-0.43-1.28C396.06,299.29,396.98,298.43,398.04,298.43 M398.04,297.55
				c-1.52,0-2.83,1.23-2.94,2.75s1.03,2.75,2.55,2.75s2.83-1.23,2.94-2.75C400.7,298.78,399.56,297.55,398.04,297.55L398.04,297.55z
				"/>
			<g>
				<polygon class="st9" points="398.26,297.56 397.82,297.53 397.89,296.65 398.33,296.68 				"/>
				<path class="st9" d="M398.45,294.88l-0.44-0.03l0.13-1.81l0.44,0.03L398.45,294.88z M398.71,291.26l-0.44-0.03l0.13-1.81
					l0.44,0.03L398.71,291.26z M398.97,287.65l-0.44-0.03l0.13-1.81l0.44,0.03L398.97,287.65z M399.23,284.04l-0.44-0.03l0.13-1.81
					l0.44,0.03L399.23,284.04z M399.49,280.43l-0.44-0.03l0.13-1.81l0.44,0.03L399.49,280.43z M399.75,276.82l-0.44-0.03l0.13-1.81
					l0.44,0.03L399.75,276.82z M400.01,273.2l-0.44-0.03l0.13-1.81l0.44,0.03L400.01,273.2z M400.27,269.59l-0.44-0.03l0.13-1.81
					l0.44,0.03L400.27,269.59z M400.53,265.98l-0.44-0.03l0.13-1.81l0.44,0.03L400.53,265.98z M400.78,262.37l-0.44-0.03l0.13-1.81
					l0.44,0.03L400.78,262.37z M401.04,258.76l-0.44-0.03l0.13-1.81l0.44,0.03L401.04,258.76z"/>
				
					<rect x="400.67" y="254.47" transform="matrix(0.0708 -0.9975 0.9975 0.0708 118.654 636.7578)" class="st9" width="0.88" height="0.44"/>
			</g>
			<path class="st9" d="M419.78,254.73H261.44c-0.89,0-1.71-0.35-2.31-0.99c-0.6-0.64-0.89-1.49-0.82-2.38l0.78-10.9
				c0.13-1.82,1.72-3.31,3.54-3.31h158.35c0.89,0,1.71,0.35,2.31,0.99c0.6,0.64,0.89,1.49,0.83,2.38l-0.78,10.9
				C423.2,253.25,421.61,254.73,419.78,254.73z M262.63,238.1c-1.33,0-2.49,1.08-2.59,2.42l-0.78,10.9
				c-0.04,0.63,0.16,1.22,0.57,1.66c0.41,0.44,0.98,0.69,1.61,0.69h158.35c1.33,0,2.49-1.08,2.59-2.42l0.78-10.9
				c0.04-0.63-0.16-1.22-0.57-1.66c-0.41-0.44-0.98-0.68-1.61-0.68H262.63z"/>
			<path class="st23" d="M416.38,244.18h-150.1c-0.82,0-1.44-0.67-1.38-1.48l0,0c0.06-0.82,0.77-1.48,1.59-1.48h150.1
				c0.82,0,1.44,0.67,1.38,1.48l0,0C417.92,243.51,417.2,244.18,416.38,244.18z"/>
			<path class="st23" d="M391.37,250.43H265.83c-0.82,0-1.44-0.67-1.38-1.48l0,0c0.06-0.82,0.77-1.48,1.59-1.48h125.54
				c0.82,0,1.44,0.67,1.38,1.48l0,0C392.9,249.76,392.18,250.43,391.37,250.43z"/>
		</g>
	</g>
</g>
</svg>
